<svg xmlns="http://www.w3.org/2000/svg" viewBox="0 0 428.43 152.9">
    <polyline points="215.53 37.85 215.53 20.35 2.63 2.85 2.63 150.05 215.53 132.55 215.53 115.05"
        style="fill:rgba(0, 0, 0,0); stroke:#fb923c; stroke-miterlimit:7; stroke-width:6px;" />
    <g>
        <rect x="2.63" y="37.85" width="425.8" height="77.2" style="fill:rgba(251,146,60,0);" />
        <path
            d="M77.33,44.45h-9.3c-3.2,0-3.7,2.1-4.4,3.3l-13.4,23.9-13.3-23.9c-.8-1.2-1.2-3.3-4.4-3.3h-9.6c-2.2,0-2.8,1.1-2.8,2.8v58.2c0,2.2,1.1,2.8,2.8,2.8h9.6c1.8,0,2.8-.6,2.8-2.8v-32.8l9.8,17c.5,.8,1.3,2,2.7,2h4.8c1.5,0,2.3-1.3,2.8-2l9.7-17v32.9c0,2.2,1.1,2.8,2.8,2.8h9.3c1.7,0,2.8-.6,2.8-2.8V47.25c.1-1.7-.5-2.8-2.7-2.8Zm67.2,20.6c0-15.3-14.5-21.9-26.1-21.9s-25.9,6.6-25.9,21.9v22.9c0,15.3,14.3,21.9,25.9,21.9s26.1-6.6,26.1-21.9v-22.9Zm-15.2,21.5c0,6.2-4.5,9.8-10.9,9.8s-10.8-3.6-10.8-9.8v-20.2c0-6.2,4.5-9.8,10.8-9.8s10.9,3.6,10.9,9.8v20.2Zm79.8,18.7l-13.6-19.9c6-2,13.5-9.1,13.5-19.3,0-6.2-2-11.7-5.6-15.2-4.1-4.1-8.7-6.2-19.3-6.2h-24.4c-2.2,0-2.7,1.1-2.7,2.8v58c0,2.2,1,2.8,2.7,2.8h9.6c1.7,0,2.8-.6,2.8-2.8V58.25h12.9c5,0,8.9,3.2,8.9,8.2,0,4.6-4.4,7.9-9.2,7.9h-1.9c-2.2,0-2.8,1.1-2.8,2.8v7.8c0,2.7,.2,3.8,1.1,4.9l10.5,15.6c1.3,2,2.5,2.9,4.8,2.9h11.4c1.7,0,2.2-1.8,1.3-3.1Zm69.5-60.8h-9.3c-3.2,0-3.7,2.1-4.4,3.3l-13.4,23.8-13.3-23.8c-.8-1.2-1.2-3.3-4.4-3.3h-9.6c-2.2,0-2.8,1.1-2.8,2.8v58.2c0,2.2,1.1,2.8,2.8,2.8h9.6c1.8,0,2.8-.6,2.8-2.8v-32.8l9.8,17c.5,.8,1.3,2,2.7,2h4.8c1.5,0,2.3-1.3,2.8-2l9.7-17v32.9c0,2.2,1.1,2.8,2.8,2.8h9.3c1.7,0,2.8-.6,2.8-2.8V47.25c.1-1.7-.5-2.8-2.7-2.8Zm67.2,20.6c0-15.3-14.5-21.9-26.1-21.9s-25.9,6.6-25.9,21.9v22.9c0,15.3,14.3,21.9,25.9,21.9s26.1-6.6,26.1-21.9v-22.9Zm-15.2,21.5c0,6.2-4.5,9.8-10.9,9.8s-10.8-3.6-10.8-9.8v-20.2c0-6.2,4.5-9.8,10.8-9.8s10.9,3.6,10.9,9.8v20.2Zm79.9,18.7l-13.7-19.9c6-2,13.5-9.1,13.5-19.3,0-6.2-2-11.7-5.6-15.2-4.1-4.1-8.7-6.2-19.3-6.2h-24.4c-2.2,0-2.7,1.1-2.7,2.8v58c0,2.2,1,2.8,2.7,2.8h9.6c1.7,0,2.8-.6,2.8-2.8V58.25h12.9c5,0,8.9,3.2,8.9,8.2,0,4.6-4.4,7.9-9.2,7.9h-1.9c-2.2,0-2.8,1.1-2.8,2.8v7.8c0,2.7,.2,3.8,1.1,4.9l10.5,15.6c1.3,2,2.5,2.9,4.8,2.9h11.4c1.8,0,2.2-1.8,1.4-3.1Z"
            fill="currentColor" />
    </g>
</svg>