<svg xmlns="http://www.w3.org/2000/svg" fill="none" viewBox="0 0 190 190">
    <path fill="currentColor" d="M134.4,133.5c-7,4.9-20.9,8.2-36.9,8.2c-19.7,0-36.2-5-40.5-11.7c-1.6,3.9-1.9,8.3-1.9,11.1c0,0-1,13.9,10.8,23.5
	c0-5,5-9.1,11.1-9.1c10.5,0,10.5,7.5,10.5,13.6v0.5c0,9.2,6.9,17.1,16.7,20.4c-1.5-2.5-2.3-5.3-2.3-8.1c0-8.8,6.3-12.1,13.7-15.9
	c5.8-3,12.3-6.4,16.8-13.1c2.4-3.6,3.7-7.7,3.7-11.8C135.9,138.5,135.4,135.9,134.4,133.5z M129.4,4.8c1.9,1.9,2.9,4.5,4.8,9.7
	l42.3,113.6c-15.9-6.7-32.9-11.5-50.6-14L98.4,38c-0.6-1.6-2.6-2.4-4.5-2c-1.2,0.3-2.1,1-2.4,2l-27.2,76c-17.7,2.5-34.8,7.3-50.8,14
	L56,14.5c1.9-5.2,2.9-7.8,4.8-9.7c1.7-1.7,3.9-3,6.3-3.8C70,0,73.3,0,79.9,0h30.4c6.6,0,10,0,12.8,0.9
	C125.5,1.7,127.7,3.1,129.4,4.8L129.4,4.8z" />
</svg>